LG_Stand_to_Walk02																		
version=1																		
nRows=62																		
nColumns=19																		
inDegrees=yes																		
endheader																		
time	ground_force2_vx	ground_force2_vy	ground_force2_vz	ground_force2_px	ground_force2_py	ground_force2_pz	ground_torque2_x	ground_torque2_y	ground_torque2_z	ground_force1_vx	ground_force1_vy	ground_force1_vz	ground_force1_px	ground_force1_py	ground_force1_pz	ground_torque1_x	ground_torque1_y	ground_torque1_z
6.732	0	0	0	0.2	0	-0.3	0	0	0	58.849247	736.907593	86.655281	-0.133155	0	0.364736	-1.00E-05	-0.461317	-9.00E-06
6.733	0	0	0	0.2	0	-0.3	0	0	0	59.004223	736.907593	86.655281	-0.133155	0	0.3648	-1.00E-05	-0.423298	-8.00E-06
6.734	0	0	0	0.2	0	-0.3	0	0	0	59.394199	734.691956	88.535698	-0.133372	0	0.364818	-1.80E-05	-0.466752	-8.00E-06
6.735	0	0	0	0.2	0	-0.3	0	0	0	59.620537	734.691956	89.084251	-0.133372	0	0.364941	-1.80E-05	-0.466752	-6.00E-06
6.736	0	0	0	0.2	0	-0.3	0	0	0	59.626312	739.305542	89.084251	-0.133372	0	0.364941	-1.80E-05	-0.466752	-6.00E-06
6.737	0	0	0	0.2	0	-0.3	0	0	0	60.407707	739.305542	89.162498	-0.133167	0	0.36643	-2.80E-05	-0.390768	-6.00E-06
6.738	0	0	0	0.2	0	-0.3	0	0	0	60.407707	739.305542	89.162743	-0.133167	0	0.366705	-1.80E-05	-0.390768	-2.00E-06
6.739	0	0	0	0.2	0	-0.3	0	0	0	59.856976	740.163818	89.632721	-0.133194	0	0.366715	-1.80E-05	-0.418475	-2.00E-06
6.74	0	0	0	0.2	0	-0.3	0	0	0	59.856976	741.030151	89.632927	-0.133232	0	0.366722	-1.00E-05	-0.453431	-6.00E-06
6.741	0	0	0	0.2	0	-0.3	0	0	0	60.480507	743.618347	89.711136	-0.133371	0	0.367109	-1.00E-06	-0.453431	-7.00E-06
6.742	0	0	0	0.2	0	-0.3	0	0	0	61.103313	743.618347	90.024658	-0.133371	0	0.367656	2.00E-06	-0.453431	-6.00E-06
6.743	0	0	0	0.2	0	-0.3	0	0	0	61.103313	746.528564	90.024658	-0.133218	0	0.367656	2.00E-06	-0.497524	-5.00E-06
6.744	0	0	0	0.2	0	-0.3	0	0	0	59.694057	748.923523	89.632965	-0.133218	0	0.367914	2.00E-06	-0.588862	-4.00E-06
6.745	0	0	0	0.2	0	-0.3	0	0	0	59.694057	748.923523	89.632965	-0.133502	0	0.367914	-1.50E-05	-0.588862	-4.00E-06
6.746	0	0	0	0.2	0	-0.3	0	0	0	60.867596	747.400208	90.964989	-0.133585	0	0.367914	-1.50E-05	-0.551664	-4.00E-06
6.747	0	0	0	0.2	0	-0.3	0	0	0	61.336147	747.400208	91.043159	-0.133835	0	0.367995	-1.60E-05	-0.441779	-4.00E-06
6.748	0	0	0	0.2	0	-0.3	0	0	0	61.647549	751.666992	91.121933	-0.133835	0	0.369375	-1.60E-05	-0.398782	0.00E+00
6.749	0	0	0	0.2	0	-0.3	0	0	0	61.647549	751.666992	91.905197	-0.133835	0	0.369375	-1.60E-05	-0.398782	-6.00E-06
6.75	0	0	0	0.2	0	-0.3	0	0	0	61.334702	751.333801	91.983727	-0.133778	0	0.369416	-2.20E-05	-0.398782	0.00E+00
6.751	0	0	0	0.2	0	-0.3	0	0	0	61.334702	751.333801	92.297043	-0.13385	0	0.369416	-2.20E-05	-0.366918	-4.00E-06
6.752	0	0	0	0.2	0	-0.3	0	0	0	61.334702	752.87738	92.297043	-0.133802	0	0.369416	-2.20E-05	-0.366918	-4.00E-06
6.753	0	0	0	0.2	0	-0.3	0	0	0	61.491123	752.87738	92.688705	-0.133802	0	0.369811	-1.30E-05	-0.361609	-6.00E-06
6.754	0	0	0	0.2	0	-0.3	0	0	0	62.428944	751.663513	94.725861	-0.133704	0	0.370369	-1.30E-05	-0.381979	-6.00E-06
6.755	0	0	0	0.2	0	-0.3	0	0	0	62.428944	751.663513	94.725861	-0.133548	0	0.370369	-1.50E-05	-0.381979	-6.00E-06
6.756	0	0	0	0.2	0	-0.3	0	0	0	61.484631	755.452087	94.725861	-0.133704	0	0.370421	-1.50E-05	-0.381979	-3.00E-06
6.757	0	0	0	0.2	0	-0.3	0	0	0	61.484631	755.984802	95.039505	-0.133822	0	0.370421	-1.60E-05	-0.374141	-3.00E-06
6.758	0	0	0	0.2	0	-0.3	0	0	0	61.877495	758.539795	95.039505	-0.133822	0	0.370667	-1.40E-05	-0.374141	-5.00E-06
6.759	0	0	0	0.2	0	-0.3	0	0	0	61.877495	760.083801	95.117874	-0.133754	0	0.370882	-1.90E-05	-0.374141	-5.00E-06
6.76	0	0	0	0.2	0	-0.3	0	0	0	61.640331	762.498535	95.117874	-0.133668	0	0.370882	-6.00E-06	-0.410352	-5.00E-06
6.761	0	0	0	0.2	0	-0.3	0	0	0	61.564644	760.586426	95.744476	-0.133707	0	0.371343	-1.90E-05	-0.532721	-3.00E-06
6.762	0	0	0	0.2	0	-0.3	0	0	0	61.012474	760.586426	95.901421	-0.133707	0	0.371747	-6.00E-06	-0.532721	1.00E-06
6.763	0	0	0	0.2	0	-0.3	0	0	0	60.548977	760.586426	95.901421	-0.133835	0	0.371747	-2.30E-05	-0.513608	1.00E-06
6.764	0	0	0	0.2	0	-0.3	0	0	0	60.548977	771.436768	96.841469	-0.133922	0	0.371764	-3.00E-06	-0.436342	-3.00E-06
6.765	0	0	0	0.2	0	-0.3	0	0	0	61.093933	771.436768	96.841469	-0.133922	0	0.371764	-1.50E-05	-0.436342	-5.00E-06
6.766	0	0	0	0.2	0	-0.3	0	0	0	61.718182	767.276733	97.625015	-0.133772	0	0.371764	-3.00E-06	-0.436342	-5.00E-06
6.767	0	0	0	0.2	0	-0.3	0	0	0	61.718182	767.276733	98.17337	-0.133666	0	0.372386	-1.50E-05	-0.302298	-6.00E-06
6.768	0	0	0	0.2	0	-0.3	0	0	0	61.018967	770.379883	98.565186	-0.133772	0	0.372206	-1.20E-05	-0.398267	-6.00E-06
6.769	0	0	0	0.2	0	-0.3	0	0	0	61.018967	770.880981	99.113739	-0.134006	0	0.372353	-1.20E-05	-0.358316	-4.00E-06
6.77	0	0	0	0.2	0	-0.3	0	0	0	61.093933	773.473755	100.132202	-0.134006	0	0.372353	2.00E-06	-0.398267	-4.00E-06
6.771	0	0	0	0.2	0	-0.3	0	0	0	61.173225	773.79895	100.993958	-0.133779	0	0.372401	2.00E-06	-0.358316	-5.00E-06
6.772	0	0	0	0.2	0	-0.3	0	0	0	61.173225	776.044678	101.699089	-0.133743	0	0.372401	-6.00E-06	-0.382911	-5.00E-06
6.773	0	0	0	0.2	0	-0.3	0	0	0	61.173225	773.79895	101.777664	-0.133779	0	0.373042	-6.00E-06	-0.375904	-4.00E-06
6.774	0	0	0	0.2	0	-0.3	0	0	0	61.250355	773.787781	103.187729	-0.133743	0	0.373126	-7.00E-06	-0.375904	-3.00E-06
6.775	0	0	0	0.2	0	-0.3	0	0	0	61.64394	773.787781	103.187729	-0.133455	0	0.373126	-2.00E-05	-0.314596	-3.00E-06
6.776	0	0	0	0.2	0	-0.3	0	0	0	62.110325	779.462524	104.519669	-0.133455	0	0.373109	-2.00E-05	-0.308609	-7.00E-06
6.777	0	0	0	0.2	0	-0.3	0	0	0	62.110325	779.462524	105.146637	-0.133455	0	0.373109	-1.90E-05	-0.314596	-1.00E-05
6.778	0	0	0	0.2	0	-0.3	0	0	0	61.326042	779.272339	105.381744	-0.133524	0	0.373203	-7.00E-06	-0.308609	-1.00E-05
6.779	0	0	0	0.2	0	-0.3	0	0	0	60.546814	779.272339	105.930298	-0.133854	0	0.373664	-5.00E-06	-0.403218	-8.00E-06
6.78	0	0	0	0.2	0	-0.3	0	0	0	60.546814	780.493103	106.556908	-0.133854	0	0.373797	-5.00E-06	-0.390335	-3.00E-06
6.781	0	0	0	0.2	0	-0.3	0	0	0	61.09177	783.237183	107.810562	-0.133666	0	0.373853	-6.00E-06	-0.390335	-3.00E-06
6.782	0	0	0	0.2	0	-0.3	0	0	0	61.092491	783.919495	108.437439	-0.133666	0	0.374251	-1.00E-05	-0.297	-3.00E-06
6.783	0	0	0	0.2	0	-0.3	0	0	0	61.092491	784.427856	108.985954	-0.133671	0	0.374251	-1.40E-05	-0.297	-5.00E-06
6.784	0	0	0	0.2	0	-0.3	0	0	0	60.933178	788.224182	109.064407	-0.133682	0	0.373753	-1.40E-05	-0.39398	-5.00E-06
6.785	0	0	0	0.2	0	-0.3	0	0	0	60.933178	788.224182	109.064407	-0.133671	0	0.373753	-1.70E-05	-0.39398	-5.00E-06
6.786	0	0	0	0.2	0	-0.3	0	0	0	61.088879	788.21875	110.3181	-0.133621	0	0.374187	-1.70E-05	-0.240168	-3.00E-06
6.787	0	0	0	0.2	0	-0.3	0	0	0	61.088879	788.21875	111.101807	-0.133621	0	0.374509	-2.30E-05	-0.240168	-7.00E-06
6.788	0	0	0	0.2	0	-0.3	0	0	0	61.088879	790.105713	111.258194	-0.133719	0	0.374509	-1.80E-05	-0.356637	-7.00E-06
6.789	0	0	0	0.2	0	-0.3	0	0	0	61.868114	790.105713	112.276802	-0.133719	0	0.375174	-2.10E-05	-0.356637	-7.00E-06
6.79	0	0	0	0.2	0	-0.3	0	0	0	61.947407	789.581116	113.452164	-0.133719	0	0.375247	-1.80E-05	-0.284239	-7.00E-06
6.791	0	0	0	0.2	0	-0.3	0	0	0	61.947407	789.581116	114.549194	-0.133783	0	0.375247	-1.50E-05	-0.180201	-4.00E-06
6.792	0	0	0	0.2	0	-0.3	0	0	0	61.088161	790.629089	115.724716	-0.13393	0	0.374779	-1.50E-05	-0.087685	-2.00E-06
6.793	0	0	0	0.2	0	-0.3	0	0	0	61.088161	791.122375	116.35144	-0.13393	0	0.374779	-1.70E-05	-0.087685	-4.00E-06
